# xmcd CD database file
#
# Track frame offsets:
#	150
#	9153
#	44642
#	73247
#	101587
#	124879
#	159326
#	193752
#	225356
#	259568
#
# Disc length: 3639 seconds
#
# Revision: 0
# Processed by: cddbd v1.5.1PL0 Copyright (c) Steve Scherf et al.
# Submitted via: CDex 1.51
#
DISCID=7e0e350a
DTITLE=José Reinoso and Repique - South American Jazz
DYEAR=2001
DGENRE=Jazz
TTITLE0=Intro
TTITLE1=Samba do Aviao
TTITLE2=Contrabajeando
TTITLE3=Pedacito de Cielo
TTITLE4=Atras da Porta
TTITLE5=Imágenes
TTITLE6=Maturana
TTITLE7=María Noel
TTITLE8=Baile de los Morenos
TTITLE9=El Día que me Quieras
EXTD=YEAR: 2001
EXTT0=
EXTT1=
EXTT2=
EXTT3=
EXTT4=
EXTT5=
EXTT6=
EXTT7=
EXTT8=
EXTT9=
PLAYORDER=
